<svg width="46" height="47" viewBox="0 0 46 47" fill="none" xmlns="http://www.w3.org/2000/svg">
<path d="M31.8182 0.727272V3H36.3636V5.27273H38.6364V7.54545H40.9091V9.81818H43.1818V14.3636H45.4545V32.5455H43.1818V37.0909H40.9091V39.3636H38.6364V41.6364H36.3636V43.9091H31.8182V46.1818H13.6364V43.9091H9.09091V41.6364H6.81818V39.3636H4.54545V37.0909H2.27273V32.5455H0V14.3636H2.27273V9.81818H4.54545V7.54545H6.81818V5.27273H9.09091V3H13.6364V0.727272H31.8182ZM18.1818 12.0909V14.3636H15.9091V32.5455H18.1818V34.8182H27.2727V32.5455H29.5455V28H25V30.2727H20.4545V16.6364H25V18.9091H29.5455V14.3636H27.2727V12.0909H18.1818Z" fill="#133A86"/>
</svg>
